<svg width="48" height="54" viewBox="0 0 48 54" fill="none" xmlns="http://www.w3.org/2000/svg">
<path d="M47.2517 13.7504H43.9182C43.4805 13.7504 43.047 13.8366 42.6425 14.0041C42.2382 14.1716 41.8707 14.4171 41.561 14.7266C41.2515 15.0364 41.006 15.4039 40.8385 15.8081C40.671 16.2126 40.5847 16.6461 40.5847 17.0839V30.4186C40.5847 34.8391 38.8288 39.0785 35.703 42.2043C32.5773 45.33 28.338 47.0861 23.9175 47.0861C21.7287 47.0861 19.5614 46.655 17.5392 45.8174C15.517 44.9798 13.6796 43.752 12.1319 42.2043C10.5842 40.6566 9.3565 38.8192 8.5189 36.797C7.6813 34.7748 7.25023 32.6074 7.25025 30.4186L7.25025 17.0849C7.25038 16.6471 7.16425 16.2134 6.9968 15.8089C6.82933 15.4044 6.5838 15.0366 6.27425 14.7271C5.96468 14.4174 5.59715 14.1719 5.19265 14.0041C4.78815 13.8366 4.3546 13.7504 3.91675 13.7504H0.583253L0.583253 30.4179C0.583253 33.4822 1.18681 36.5164 2.35947 39.3475C3.53213 42.1785 5.25093 44.7508 7.4177 46.9176C9.5845 49.0844 12.1569 50.8031 14.9879 51.9757C17.8189 53.1484 20.8532 53.7519 23.9175 53.7519C30.106 53.7519 36.0413 51.2935 40.4173 46.9175C44.7933 42.5416 47.2517 36.6065 47.2517 30.4179V13.7504Z" fill="url(#paint0_linear_1_5557)"/>
<path d="M23.9175 40.4191C26.5698 40.4191 29.1133 39.3656 30.9885 37.4902C32.864 35.6148 33.9175 33.0713 33.9175 30.4191V13.7504C33.9175 11.9821 34.62 10.2866 35.8702 9.03638C37.1205 7.78613 38.8163 7.08363 40.5845 7.08363L47.2515 7.08363V0.416626L40.5847 0.416626C37.0485 0.416626 33.657 1.82138 31.1563 4.32188C28.6558 6.82263 27.251 10.2141 27.251 13.7504L27.251 30.4186C27.251 31.3027 26.8998 32.1506 26.2748 32.7758C25.6495 33.4009 24.8016 33.7521 23.9175 33.7521C23.0334 33.7521 22.1855 33.4009 21.5604 32.7758C20.9352 32.1506 20.584 31.3027 20.584 30.4186L20.584 13.7504C20.584 10.2141 19.1792 6.82263 16.6786 4.32188C14.1781 1.82138 10.7866 0.416628 7.25025 0.416628L0.583252 0.416628L0.583252 7.08463H7.25025C9.0182 7.08463 10.7138 7.78688 11.964 9.03688C13.2142 10.2869 13.9167 11.9824 13.917 13.7504V30.4186C13.9169 31.7319 14.1756 33.0324 14.6781 34.2457C15.1807 35.4591 15.9173 36.5616 16.8459 37.4902C17.7746 38.4188 18.8771 39.1555 20.0904 39.658C21.3038 40.1606 22.6042 40.4192 23.9175 40.4191Z" fill="url(#paint1_linear_1_5557)"/>
<defs>
<linearGradient id="paint0_linear_1_5557" x1="23.9589" y1="-10.7519" x2="-12.3387" y2="49.8267" gradientUnits="userSpaceOnUse">
<stop stop-color="#FDAE8F"/>
<stop offset="1" stop-color="#FD1C68"/>
</linearGradient>
<linearGradient id="paint1_linear_1_5557" x1="23.9589" y1="-10.7519" x2="-12.3387" y2="49.8267" gradientUnits="userSpaceOnUse">
<stop stop-color="#FDAE8F"/>
<stop offset="1" stop-color="#FD1C68"/>
</linearGradient>
</defs>
</svg>
